<?xml version="1.0" standalone="no"?>
<!DOCTYPE svg PUBLIC "-//W3C//DTD SVG 20010904//EN"
 "http://www.w3.org/TR/2001/REC-SVG-20010904/DTD/svg10.dtd">
<svg version="1.0" xmlns="http://www.w3.org/2000/svg"
 width="232.000000pt" height="372.000000pt" viewBox="0 0 232.000000 372.000000"
 preserveAspectRatio="xMidYMid meet">

<g transform="translate(0.000000,372.000000) scale(0.100000,-0.100000)"
 stroke="none">
<path d="M553 3689 c-55 -7 -153 -45 -192 -73 -45 -34 -130 -128 -154 -171
-34 -60 -67 -179 -67 -240 0 -59 34 -182 68 -242 53 -97 196 -212 283 -228
l34 -6 -2 -122 -1 -122 -64 -21 c-427 -141 -587 -629 -322 -980 83 -109 237
-213 342 -230 l42 -7 0 -118 c0 -66 0 -122 1 -126 0 -4 -21 -13 -46 -20 -96
-28 -205 -119 -264 -221 -35 -60 -71 -182 -71 -241 0 -57 33 -178 66 -240 66
-125 216 -231 356 -250 164 -22 304 24 419 138 118 118 165 258 142 422 -25
179 -150 332 -317 388 l-51 18 -3 125 -3 125 43 6 c65 9 196 80 270 147 37 33
69 56 72 51 3 -5 48 -33 100 -62 l93 -52 -9 -41 c-12 -50 -5 -223 9 -251 6
-11 26 -51 44 -88 41 -87 122 -162 226 -214 77 -38 77 -38 202 -38 117 0 131
2 191 29 281 123 389 448 236 709 -31 53 -127 146 -181 175 -120 66 -267 81
-393 40 -75 -24 -97 -36 -163 -90 -26 -21 -50 -38 -53 -38 -6 0 -195 107 -203
114 -1 1 7 38 18 81 26 101 19 247 -16 336 -5 13 17 29 93 73 55 31 104 56
110 56 5 0 21 -11 36 -25 38 -35 139 -93 183 -104 216 -55 435 22 553 194 87
126 109 305 56 443 -31 81 -98 176 -156 222 -58 46 -156 87 -241 101 -170 28
-359 -53 -465 -199 -22 -29 -46 -71 -55 -95 -9 -23 -20 -51 -25 -62 -11 -23
-12 -218 -2 -255 6 -23 0 -29 -98 -83 l-104 -59 -63 59 c-71 66 -154 113 -245
138 l-62 18 0 123 c0 111 2 124 18 124 29 0 123 49 171 88 68 55 97 90 135
162 155 294 -31 662 -359 710 -78 11 -75 11 -162 -1z m198 -303 c21 -15 51
-45 66 -68 24 -36 28 -51 28 -117 0 -64 -4 -82 -25 -113 -51 -76 -151 -112
-241 -88 -107 29 -170 136 -149 252 14 75 75 141 144 159 54 14 135 2 177 -25z
m1149 -661 c65 -33 120 -122 120 -193 -1 -56 -48 -142 -96 -175 -48 -34 -132
-46 -188 -27 -158 52 -197 263 -69 369 59 49 164 61 233 26z m-1137 -574 c27
-12 72 -45 101 -75 46 -46 55 -64 76 -134 22 -81 22 -83 5 -144 -27 -99 -56
-141 -140 -206 -15 -12 -64 -29 -118 -41 -56 -13 -159 6 -213 40 -84 52 -154
175 -154 270 0 44 18 107 44 158 25 48 98 110 160 136 74 31 163 29 239 -4z
m1095 -756 c28 -9 65 -28 83 -42 38 -32 79 -119 79 -167 0 -72 -68 -171 -137
-197 -13 -5 -53 -9 -88 -9 -54 0 -69 4 -110 33 -64 43 -95 100 -95 175 1 117
81 201 211 221 3 1 28 -6 57 -14z m-1167 -671 c106 -30 164 -111 157 -220 -7
-118 -94 -199 -213 -198 -139 1 -230 118 -204 260 13 70 65 127 136 152 32 11
60 21 62 21 3 1 30 -6 62 -15z"/>
</g>
</svg>
