<?xml version="1.0" standalone="no"?>
<!DOCTYPE svg PUBLIC "-//W3C//DTD SVG 20010904//EN"
 "http://www.w3.org/TR/2001/REC-SVG-20010904/DTD/svg10.dtd">
<svg version="1.0" xmlns="http://www.w3.org/2000/svg"
 width="206.000000pt" height="185.000000pt" viewBox="0 0 206.000000 185.000000"
 preserveAspectRatio="xMidYMid meet">

<g transform="translate(0.000000,185.000000) scale(0.100000,-0.100000)"
 stroke="none">
<path d="M535 1821 c-22 -10 -54 -34 -72 -52 -17 -19 -106 -164 -198 -324 -92
-159 -188 -326 -213 -370 -45 -76 -47 -84 -47 -155 l0 -75 214 -370 c118 -203
226 -383 240 -399 14 -16 49 -39 76 -52 l50 -24 440 0 440 0 50 24 c28 13 62
36 77 52 26 28 402 669 439 749 26 56 25 149 -2 200 -50 95 -404 703 -425 731
-13 18 -47 44 -76 58 l-52 26 -450 0 c-418 0 -454 -2 -491 -19z m546 -307 l24
-26 0 -283 c0 -260 -1 -285 -18 -303 -39 -43 -113 -35 -136 14 -7 17 -11 117
-11 300 l0 275 25 24 c33 34 83 34 116 -1z m-298 -112 c10 -9 17 -29 17 -49 0
-28 -9 -42 -55 -85 -38 -35 -67 -75 -93 -127 -36 -73 -37 -78 -37 -186 0 -99
3 -116 27 -168 36 -76 123 -166 195 -202 161 -79 352 -48 477 78 99 99 141
225 118 358 -16 94 -52 161 -128 240 -67 69 -77 96 -49 136 20 29 59 37 93 19
16 -8 55 -43 88 -78 179 -191 200 -477 52 -699 -123 -183 -357 -279 -572 -234
-121 25 -199 67 -287 155 -124 123 -176 256 -166 430 5 111 34 198 95 287 91
132 168 175 225 125z"/>
</g>
</svg>
