<?xml version="1.0" standalone="no"?>
<!DOCTYPE svg PUBLIC "-//W3C//DTD SVG 20010904//EN"
 "http://www.w3.org/TR/2001/REC-SVG-20010904/DTD/svg10.dtd">
<svg version="1.0" xmlns="http://www.w3.org/2000/svg"
 width="150.000000pt" height="150.000000pt" viewBox="0 0 150.000000 150.000000"
 preserveAspectRatio="xMidYMid meet">
<g transform="translate(0.000000,150.000000) scale(0.100000,-0.100000)">
<path d="M690 1490 c0 -5 -17 -28 -39 -50 l-39 -40 -192 0 -192 0 -29 -29 -29
-29 0 -617 0 -617 29 -29 29 -29 512 0 512 0 29 29 29 29 0 617 0 617 -29 29
-29 29 -192 0 -192 0 -39 40 c-22 22 -39 45 -39 50 0 6 -22 10 -50 10 -27 0
-50 -4 -50 -10z m87 -82 c12 -13 23 -32 25 -43 3 -17 13 -21 73 -25 l70 -5 0
-40 0 -40 -205 0 -205 0 0 40 0 40 70 5 c60 4 70 8 73 25 5 27 41 65 62 65 9
0 26 -10 37 -22z m321 -449 c4 -23 -128 -219 -148 -219 -25 0 -123 104 -118
126 6 32 43 28 73 -7 34 -41 44 -35 105 55 33 51 49 66 64 64 12 -2 22 -10 24
-19z m-363 -99 l0 -25 -173 -3 c-147 -2 -173 0 -178 13 -4 8 -4 22 0 30 5 13
31 15 178 13 l173 -3 0 -25z m363 -291 c4 -23 -128 -219 -148 -219 -25 0 -123
104 -118 126 6 32 43 28 73 -7 34 -41 44 -35 105 55 33 51 49 66 64 64 12 -2
22 -10 24 -19z m-363 -99 l0 -25 -173 -3 c-147 -2 -173 0 -178 13 -4 8 -4 22
0 30 5 13 31 15 178 13 l173 -3 0 -25z"/>
</g>
</svg>
