<?xml version="1.0" standalone="no"?>
<!DOCTYPE svg PUBLIC "-//W3C//DTD SVG 20010904//EN"
 "http://www.w3.org/TR/2001/REC-SVG-20010904/DTD/svg10.dtd">
<svg version="1.0" xmlns="http://www.w3.org/2000/svg"
 width="144.000000pt" height="144.000000pt" viewBox="0 0 144.000000 144.000000"
 preserveAspectRatio="xMidYMid meet">
<metadata>
Created by potrace 1.10, written by Peter Selinger 2001-2011
</metadata>
<g transform="translate(0.000000,144.000000) scale(0.100000,-0.100000)"
>
<path d="M1105 1293 c-126 -31 -197 -56 -282 -100 -115 -59 -203 -124 -297
-223 l-76 -80 -78 0 c-62 0 -81 -4 -92 -18 -8 -9 -51 -62 -95 -117 -44 -54
-90 -110 -102 -123 -13 -14 -20 -28 -17 -33 3 -5 61 -9 130 -9 135 0 138 -1
110 -57 -16 -30 -35 -97 -61 -211 -22 -95 -18 -100 77 -78 115 27 181 46 211
62 56 28 57 25 57 -109 0 -68 3 -127 7 -130 5 -6 66 33 83 53 3 3 48 39 100
80 52 40 98 78 102 84 4 6 8 44 8 84 l0 74 78 76 c43 43 90 91 104 109 84 100
186 301 205 403 2 14 11 52 19 85 9 33 14 89 12 125 l-3 65 -70 2 c-38 1 -97
-5 -130 -14z m-64 -252 c20 -20 29 -39 29 -61 0 -43 -47 -90 -90 -90 -43 0
-90 47 -90 90 0 22 9 41 29 61 40 39 82 39 122 0z m-240 -240 c20 -20 29 -39
29 -61 0 -43 -47 -90 -90 -90 -43 0 -90 47 -90 90 0 22 9 41 29 61 40 39 82
39 122 0z m-306 -312 l40 -41 -24 -16 c-26 -18 -86 -42 -111 -45 -17 -2 -17
14 2 63 18 48 37 80 46 80 5 0 26 -18 47 -41z"/>
</g>
</svg>
