<?xml version="1.0" standalone="no"?>
<!DOCTYPE svg PUBLIC "-//W3C//DTD SVG 20010904//EN"
 "http://www.w3.org/TR/2001/REC-SVG-20010904/DTD/svg10.dtd">
<svg version="1.0" xmlns="http://www.w3.org/2000/svg"
 width="150.000000pt" height="150.000000pt" viewBox="0 0 150.000000 150.000000"
 preserveAspectRatio="xMidYMid meet">
<metadata>
Created by potrace 1.10, written by Peter Selinger 2001-2011
</metadata>
<g transform="translate(0.000000,150.000000) scale(0.100000,-0.100000)"
>
<path d="M853 1236 c-9 -17 -20 -44 -24 -61 -4 -16 -17 -55 -29 -85 -12 -30
-25 -68 -30 -85 -5 -16 -18 -55 -30 -85 -12 -30 -25 -68 -30 -85 -5 -16 -18
-55 -30 -85 -12 -30 -25 -68 -30 -85 -5 -16 -18 -55 -30 -85 -12 -30 -25 -68
-30 -85 -5 -16 -18 -55 -30 -85 -12 -30 -24 -64 -27 -75 -2 -11 -9 -30 -15
-42 -16 -33 -5 -48 47 -65 l46 -16 16 32 c9 17 20 45 24 61 4 17 17 55 29 85
12 30 25 69 30 85 5 17 18 55 30 85 12 30 25 69 30 85 5 17 18 55 30 85 12 30
25 69 30 85 5 17 18 55 30 85 12 30 25 69 30 85 5 17 18 55 30 85 12 30 24 64
27 75 2 11 9 30 15 42 16 33 5 48 -47 65 l-46 16 -16 -32z"/>
<path d="M204 988 c-38 -46 -97 -116 -131 -156 -35 -40 -63 -81 -63 -92 0 -10
30 -54 67 -98 38 -43 95 -112 127 -151 33 -40 67 -76 76 -81 20 -10 90 34 90
57 0 8 -45 67 -100 133 -60 70 -100 127 -100 140 0 19 89 134 177 230 30 32
29 44 -4 75 -45 41 -64 34 -139 -57z"/>
<path d="M1137 1042 c-15 -15 -27 -31 -27 -35 0 -4 45 -61 100 -127 60 -70
100 -127 100 -140 0 -13 -40 -70 -100 -140 -55 -66 -100 -124 -100 -129 0 -20
55 -61 82 -61 16 0 28 3 28 8 0 4 10 18 23 32 13 14 41 48 63 75 41 53 68 84
122 144 36 40 48 72 35 94 -8 15 -63 81 -117 142 -18 20 -55 65 -82 100 -57
74 -84 82 -127 37z"/>
</g>
</svg>
