<?xml version="1.0" encoding="UTF-8"?>
<svg xmlns="http://www.w3.org/2000/svg" width="30px" height="30px" viewBox="0 0 30 30" version="1.1">
<g id="surface436998">
<path style=" stroke:none;fill-rule:nonzero;fill:#d8dfea;fill-opacity:1;" d="M 15 29.4375 C 12.585938 29.4375 10.246094 28.730469 8.242188 27.390625 L 8.0625 27.269531 L 7.007812 29.4375 L 3.675781 29.4375 L 5.75 25.179688 L 5.671875 25.085938 C 3.828125 22.894531 2.8125 20.109375 2.8125 17.25 C 2.8125 10.53125 8.28125 5.0625 15 5.0625 C 15.078125 5.0625 15.15625 5.066406 15.234375 5.074219 C 15.292969 5.078125 15.355469 5.082031 15.417969 5.082031 L 15.539062 5.085938 L 17.742188 0.5625 L 21.1875 0.5625 L 21.1875 6.765625 L 21.277344 6.820312 C 24.976562 9.050781 27.1875 12.949219 27.1875 17.25 C 27.1875 23.96875 21.71875 29.4375 15 29.4375 Z M 8.898438 25.554688 L 9.027344 25.648438 C 10.785156 26.898438 12.851562 27.5625 15 27.5625 C 20.6875 27.5625 25.3125 22.9375 25.3125 17.25 C 25.3125 14.132812 23.921875 11.210938 21.492188 9.242188 L 21.1875 8.996094 L 21.1875 19.273438 L 17.8125 16.574219 L 17.8125 7.257812 L 11.941406 19.3125 L 17.8125 19.3125 L 17.8125 18.015625 L 21.074219 20.625 L 17.8125 23.234375 L 17.8125 21.9375 L 10.660156 21.9375 Z M 14.308594 6.972656 C 8.914062 7.332031 4.6875 11.847656 4.6875 17.25 C 4.6875 19.328125 5.304688 21.335938 6.476562 23.050781 L 6.65625 23.316406 L 14.628906 6.949219 Z M 14.308594 6.972656 "/>
<path style=" stroke:none;fill-rule:nonzero;fill:#eff4fa;fill-opacity:1;" d="M 21 0.75 L 21 6.871094 L 21.179688 6.980469 C 24.824219 9.175781 27 13.015625 27 17.25 C 27 23.867188 21.617188 29.25 15 29.25 C 12.621094 29.25 10.320312 28.554688 8.347656 27.234375 L 7.988281 26.996094 L 7.800781 27.382812 L 6.890625 29.25 L 3.976562 29.25 L 5.863281 25.371094 L 5.972656 25.152344 L 5.816406 24.964844 C 4 22.804688 3 20.066406 3 17.25 C 3 10.632812 8.382812 5.25 15 5.25 C 15.074219 5.25 15.148438 5.253906 15.222656 5.261719 C 15.285156 5.265625 15.347656 5.269531 15.410156 5.269531 L 15.652344 5.28125 L 15.757812 5.0625 L 17.859375 0.75 L 21 0.75 M 11.640625 19.5 L 18 19.5 L 18 18.40625 L 20.773438 20.625 L 18 22.84375 L 18 21.75 L 10.542969 21.75 L 10.441406 21.960938 L 8.800781 25.332031 L 8.660156 25.617188 L 8.917969 25.800781 C 10.710938 27.074219 12.8125 27.75 15 27.75 C 20.789062 27.75 25.5 23.039062 25.5 17.25 C 25.5 14.074219 24.082031 11.101562 21.609375 9.097656 L 21 8.601562 L 21 18.882812 L 18 16.484375 L 18 6.445312 L 17.289062 7.90625 L 11.902344 18.960938 L 11.640625 19.5 M 6.683594 23.691406 L 6.964844 23.109375 L 14.65625 7.324219 L 14.941406 6.742188 L 14.292969 6.785156 C 8.800781 7.152344 4.5 11.746094 4.5 17.25 C 4.5 19.367188 5.128906 21.410156 6.320312 23.15625 L 6.683594 23.691406 M 21.375 0.375 L 17.625 0.375 L 15.421875 4.894531 C 15.28125 4.890625 15.140625 4.875 15 4.875 C 8.164062 4.875 2.625 10.414062 2.625 17.25 C 2.625 20.28125 3.71875 23.054688 5.527344 25.207031 L 3.375 29.625 L 7.125 29.625 L 8.136719 27.546875 C 10.101562 28.859375 12.460938 29.625 15 29.625 C 21.835938 29.625 27.375 24.085938 27.375 17.25 C 27.375 12.75 24.964844 8.824219 21.375 6.65625 Z M 6.628906 22.945312 C 5.523438 21.320312 4.875 19.363281 4.875 17.25 C 4.875 11.886719 9.046875 7.511719 14.320312 7.160156 Z M 12.242188 19.125 L 17.625 8.070312 L 17.625 16.664062 L 21.375 19.664062 L 21.375 9.386719 C 23.660156 11.246094 25.125 14.074219 25.125 17.25 C 25.125 22.84375 20.59375 27.375 15 27.375 C 12.8125 27.375 10.792969 26.675781 9.136719 25.496094 L 10.777344 22.125 L 17.625 22.125 L 17.625 23.625 L 21.375 20.625 L 17.625 17.625 L 17.625 19.125 Z M 12.242188 19.125 "/>
<path style=" stroke:none;fill-rule:nonzero;fill:#d8dfea;fill-opacity:1;" d="M 18.421875 24.1875 L 21.1875 21.976562 L 21.1875 24.1875 Z M 18.421875 24.1875 "/>
<path style=" stroke:none;fill-rule:nonzero;fill:#eff4fa;fill-opacity:1;" d="M 21 22.367188 L 21 24 L 18.957031 24 L 21 22.367188 M 21.375 21.585938 L 18.09375 24.210938 L 17.886719 24.375 L 21.375 24.375 Z M 21.375 21.585938 "/>
</g>
</svg>
