<?xml version="1.0" encoding="UTF-8"?>
<svg viewBox="0 0 40 51" xmlns="http://www.w3.org/2000/svg">
  <g fill="#3b5998" fill-rule="evenodd">
    <path d="m0.75002 23.052c6.9088 0 13.402-2.3515 19.066 0.6639l20.184-23.716h-40v47l-1.9774e-14 -25.287c0.25047-0.0054307 0.49816-0.019007 0.75002-0.019007v1.3577z" opacity=".7"/>
    <path d="m3.9602e-14 44.578l-3.9602e-14 6.4223h40c-2.2378-11.667-9.8136-21.496-20.158-27l-19.842 20.578z" opacity=".7"/>
    <path d="m3.9035e-14 44.579l-3.9035e-14 6.4209h7.0209l18.979-22.652s-1.2608-1.0527-3.0476-2.2888c-1.3665-0.96307-3.3951-2.0593-3.3951-2.0593l-19.557 20.579z" opacity=".5"/>
    <path d="m0.75697 19c-0.2542 0-0.50418 0.013566-0.75697 0.018993v27.981l20-23.267c-5.7173-3.0131-12.27-4.7334-19.243-4.7334"/>
  </g>
</svg>
