<!DOCTYPE svg PUBLIC "-//W3C//DTD SVG 20010904//EN" "http://www.w3.org/TR/2001/REC-SVG-20010904/DTD/svg10.dtd">
<svg version="1.0" xmlns="http://www.w3.org/2000/svg" width="332px" height="219px" viewBox="0 0 3320 2190" preserveAspectRatio="xMidYMid meet">
  <g id="layer101"  stroke="none">
    <path d="M1647 2030 c-3 -8 -17 -57 -32 -109 -14 -52 -44 -142 -66 -200 l-41 -106 39 -35 c21 -19 54 -48 71 -63 l33 -28 69 62 c39 34 70 63 70 64 0 0 -20 56 -45 123 -25 67 -56 163 -69 214 -13 51 -27 86 -29 78z"/>
    <path d="M672 1840 c-194 -51 -360 -198 -433 -385 -27 -69 -32 -96 -37 -195 -3 -87 0 -131 12 -180 19 -73 72 -194 92 -211 8 -6 12 -14 11 -18 -2 -3 10 -18 25 -33 33 -32 34 -30 8 15 -64 109 -89 308 -55 448 25 106 86 215 164 295 82 83 147 126 248 161 70 25 92 28 208 28 154 0 245 -24 338 -88 42 -29 44 -13 3 18 -20 15 -33 32 -29 39 3 6 3 8 -2 4 -4 -4 -20 1 -34 11 -142 100 -347 136 -519 91z"/>
    <path d="M2314 1840 c-39 -10 -100 -33 -135 -51 -35 -18 -66 -33 -69 -33 -3 0 -34 -29 -70 -64 l-65 -63 52 36 c191 133 473 140 683 18 193 -112 310 -319 310 -548 0 -106 -29 -238 -67 -300 l-24 -40 35 40 c46 52 101 163 122 245 25 98 15 273 -19 362 -44 114 -127 228 -207 283 -22 15 -37 32 -33 39 3 6 3 8 -1 4 -5 -4 -33 6 -65 22 -133 68 -307 87 -447 50z"/>
    <path d="M759 1577 c-240 -82 -370 -341 -292 -582 16 -52 91 -175 106 -175 4 0 5 -5 1 -12 -4 -6 -3 -8 4 -5 5 4 22 -8 38 -25 15 -18 30 -32 33 -32 3 1 22 -6 41 -16 73 -37 147 -52 245 -48 52 1 95 5 95 8 0 4 21 14 48 23 44 17 167 97 148 97 -5 0 3 9 18 21 40 32 95 139 112 221 71 338 -269 637 -597 525z m258 -82 c105 -31 205 -127 240 -230 23 -67 22 -185 -1 -253 -22 -64 -80 -140 -138 -180 -71 -48 -138 -65 -237 -60 -110 6 -165 31 -240 106 -193 193 -118 525 139 615 58 20 173 21 237 2z"/>
    <path d="M853 1370 c-112 -31 -183 -121 -183 -233 0 -139 129 -252 267 -233 61 8 66 13 43 43 -24 31 -25 46 -4 67 23 24 60 19 82 -9 l20 -25 21 26 c30 38 44 100 38 163 -10 91 -88 182 -170 198 -18 3 -36 9 -42 13 -5 4 -38 0 -72 -10z"/>
    <path d="M2286 1589 c-118 -29 -244 -130 -299 -241 -87 -174 -61 -373 67 -515 141 -156 369 -198 556 -103 63 32 171 144 202 210 50 104 59 239 23 341 -8 23 -12 46 -8 52 3 5 2 8 -3 4 -5 -3 -18 13 -29 35 -10 22 -50 68 -87 103 -92 85 -170 117 -293 121 -49 2 -107 -1 -129 -7z m239 -100 c116 -43 210 -150 235 -268 66 -313 -250 -554 -540 -408 -76 38 -145 116 -175 199 -24 66 -25 193 -1 257 22 60 84 140 135 175 96 67 238 85 346 45z"/>
    <path d="M2328 1369 c-51 -15 -121 -79 -148 -136 -27 -57 -24 -147 6 -203 10 -19 17 -39 16 -43 -1 -5 1 -6 6 -3 5 3 16 -4 26 -15 9 -12 42 -32 73 -46 45 -21 65 -25 109 -20 67 7 79 14 59 33 -31 32 -15 94 24 94 34 0 48 -10 59 -40 9 -23 10 -22 37 24 20 34 30 68 34 117 4 38 4 69 0 69 -4 0 -10 11 -13 25 -9 35 -72 103 -119 126 -47 24 -119 32 -169 18z"/>
    <path d="M1511 1448 c-2 -171 -38 -333 -106 -475 -38 -81 -57 -108 -127 -177 -137 -135 -234 -170 -513 -186 -115 -6 -196 -16 -250 -31 -44 -11 -87 -22 -95 -22 -8 -1 -17 -5 -20 -8 -10 -12 -95 -53 -105 -50 -5 1 -7 0 -4 -4 4 -3 -15 -27 -42 -52 -26 -25 -51 -54 -54 -64 -4 -11 -11 -16 -18 -13 -7 4 -9 4 -5 -1 4 -4 -2 -25 -12 -46 -23 -45 -52 -159 -40 -159 4 0 13 7 20 15 7 9 19 14 27 11 8 -3 12 -2 8 3 -4 7 125 91 140 91 2 0 37 16 79 35 102 47 274 91 431 111 163 20 167 20 185 27 8 3 33 11 55 18 22 6 64 22 93 35 29 13 54 24 57 24 10 2 74 59 130 115 142 143 205 363 191 660 -4 77 -11 158 -15 180 -8 35 -9 31 -10 -37z"/>
    <path d="M1775 1445 c-6 -44 -9 -152 -9 -240 1 -137 5 -174 27 -257 33 -126 86 -226 162 -305 34 -35 60 -66 58 -68 -2 -3 0 -3 3 0 4 2 19 -4 33 -14 97 -69 232 -112 426 -136 267 -33 500 -117 664 -238 39 -29 52 -34 47 -21 -3 11 -10 41 -16 69 -17 75 -67 160 -127 216 -30 27 -59 49 -64 49 -6 0 -7 6 -3 13 4 6 4 9 0 5 -4 -3 -33 5 -64 19 -102 45 -197 63 -378 73 -229 12 -330 39 -438 118 -188 137 -286 357 -305 687 l-7 110 -9 -80z"/>
    <path d="M1604 793 c-22 -36 -64 -92 -94 -124 -62 -65 -188 -152 -208 -144 -7 2 -11 1 -7 -4 10 -17 -110 -64 -305 -121 -26 -7 7 -8 120 -4 280 10 412 33 494 89 l37 25 39 -25 c91 -57 213 -79 505 -89 l150 -6 -90 24 c-261 70 -463 207 -566 384 l-36 62 -39 -67z"/>
  </g>

</svg>
