<?xml version="1.0" standalone="no"?>
<!DOCTYPE svg PUBLIC "-//W3C//DTD SVG 20010904//EN"
 "http://www.w3.org/TR/2001/REC-SVG-20010904/DTD/svg10.dtd">
<svg version="1.0" xmlns="http://www.w3.org/2000/svg"
 width="180.000000pt" height="180.000000pt" viewBox="0 0 180.000000 180.000000"
 preserveAspectRatio="xMidYMid meet">
<metadata>
Created by potrace 1.10, written by Peter Selinger 2001-2011
</metadata>
<g transform="translate(0.000000,180.000000) scale(0.100000,-0.100000)"
>
<path d="M270 1510 l-40 -40 0 -260 0 -260 25 0 c17 0 29 8 35 23 25 61 85
102 135 93 40 -8 92 -56 101 -94 4 -15 12 -36 19 -48 7 -11 15 -31 17 -44 4
-32 22 -35 36 -8 6 13 48 133 93 268 79 239 104 290 139 290 46 0 66 -67 89
-295 5 -49 14 -121 20 -160 6 -38 13 -99 16 -135 7 -79 17 -99 38 -82 8 7 17
27 20 45 8 50 36 119 55 134 9 7 44 13 77 13 51 1 65 5 95 30 52 46 102 42
152 -10 31 -34 38 -48 38 -82 0 -35 -6 -47 -40 -80 -53 -49 -99 -52 -150 -8
-55 46 -100 39 -113 -20 -3 -14 -10 -40 -16 -57 -25 -74 -33 -99 -41 -128 -59
-202 -80 -245 -120 -245 -22 0 -60 41 -60 66 0 10 -6 66 -15 124 -23 167 -44
330 -50 398 -10 103 -36 147 -51 85 -20 -87 -129 -391 -147 -410 -46 -51 -84
-14 -142 137 -9 25 -23 58 -31 73 -8 16 -14 37 -14 46 0 10 -9 26 -21 37 -17
16 -22 16 -29 4 -6 -8 -10 -20 -10 -26 0 -26 -46 -53 -95 -56 l-50 -3 -3 -259
-2 -259 40 -38 41 -39 579 0 580 0 40 40 40 40 0 580 0 579 -38 41 -39 40
-581 0 -582 0 -40 -40z"/>
</g>
</svg>
